{
    "asset" : {
        "generator" : "Khronos glTF Blender I/O v1.4.40",
        "version" : "2.0"
    },
    "scene" : 0,
    "scenes" : [
        {
            "name" : "Scene",
            "nodes" : [
                0
            ]
        }
    ],
    "nodes" : [
        {
            "mesh" : 0,
            "name" : "desimate_branch"
        }
    ],
    "materials" : [
        {
            "doubleSided" : true,
            "name" : "desimate_branch",
            "pbrMetallicRoughness" : {
                "baseColorFactor" : [
                    0.49999991059303284,
                    0.2987659275531769,
                    0.1929343193769455,
                    1
                ]
            }
        }
    ],
    "meshes" : [
        {
            "name" : "desimate_branch",
            "primitives" : [
                {
                    "attributes" : {
                        "POSITION" : 0,
                        "NORMAL" : 1,
                        "COLOR_0" : 2
                    },
                    "indices" : 3,
                    "material" : 0
                }
            ]
        }
    ],
    "accessors" : [
        {
            "bufferView" : 0,
            "componentType" : 5126,
            "count" : 407,
            "max" : [
                0.25831982493400574,
                2.0170774459838867,
                0.10466138273477554
            ],
            "min" : [
                -0.33490100502967834,
                -0.38600534200668335,
                -0.10079941153526306
            ],
            "type" : "VEC3"
        },
        {
            "bufferView" : 1,
            "componentType" : 5126,
            "count" : 407,
            "type" : "VEC3"
        },
        {
            "bufferView" : 2,
            "componentType" : 5123,
            "count" : 407,
            "normalized" : true,
            "type" : "VEC4"
        },
        {
            "bufferView" : 3,
            "componentType" : 5123,
            "count" : 2406,
            "type" : "SCALAR"
        }
    ],
    "bufferViews" : [
        {
            "buffer" : 0,
            "byteLength" : 4884,
            "byteOffset" : 0
        },
        {
            "buffer" : 0,
            "byteLength" : 4884,
            "byteOffset" : 4884
        },
        {
            "buffer" : 0,
            "byteLength" : 3256,
            "byteOffset" : 9768
        },
        {
            "buffer" : 0,
            "byteLength" : 4812,
            "byteOffset" : 13024
        }
    ],
    "buffers" : [
        {
            "byteLength" : 17836,
            "uri" : "branch.bin"
        }
    ]
}
